/* XPM */
static char * bottom_left_active_xpm[] = {
"5 5 3 1",
" 	c None",
".	c #F6F6F6 s active_color_2",
"+	c #848484",
"+....",
"+....",
"+....",
"+....",
"+++++"};
