/* XPM */
static char * top_left_inactive_xpm[] = {
"5 34 3 1",
" 	c None",
".	c #F6F6F6 s active_color_2",
"+	c #666666",
"+++++",
"+....",
"+....",
"+....",
"+....",
"+....",
"+....",
"+....",
"+....",
"+....",
"+....",
"+....",
"+....",
"+....",
"+....",
"+....",
"+....",
"+....",
"+....",
"+....",
"+....",
"+....",
"+....",
"+....",
"+....",
"+....",
"+....",
"+....",
"+....",
"+....",
"+....",
"+....",
"+....",
"+...."};
