<?xml version="1.0" encoding="UTF-8" standalone="no"?>
<!-- Created with Inkscape (http://www.inkscape.org/) -->

<svg
   xmlns:dc="http://purl.org/dc/elements/1.1/"
   xmlns:cc="http://creativecommons.org/ns#"
   xmlns:rdf="http://www.w3.org/1999/02/22-rdf-syntax-ns#"
   xmlns:svg="http://www.w3.org/2000/svg"
   xmlns="http://www.w3.org/2000/svg"
   xmlns:sodipodi="http://sodipodi.sourceforge.net/DTD/sodipodi-0.dtd"
   xmlns:inkscape="http://www.inkscape.org/namespaces/inkscape"
   width="16"
   height="16"
   viewBox="0 0 4.2333332 4.2333335"
   version="1.1"
   id="svg8"
   inkscape:version="0.92.4 5da689c313, 2019-01-14"
   sodipodi:docname="check4.svg">
  <defs
     id="defs2" />
  <sodipodi:namedview
     id="base"
     pagecolor="#ffffff"
     bordercolor="#666666"
     borderopacity="1.0"
     inkscape:pageopacity="0.0"
     inkscape:pageshadow="2"
     inkscape:zoom="22.4"
     inkscape:cx="7.6629083"
     inkscape:cy="8.1639808"
     inkscape:document-units="px"
     inkscape:current-layer="layer1"
     showgrid="false"
     units="px"
     inkscape:pagecheckerboard="true"
     inkscape:window-width="1156"
     inkscape:window-height="784"
     inkscape:window-x="465"
     inkscape:window-y="145"
     inkscape:window-maximized="0" />
  <metadata
     id="metadata5">
    <rdf:RDF>
      <cc:Work
         rdf:about="">
        <dc:format>image/svg+xml</dc:format>
        <dc:type
           rdf:resource="http://purl.org/dc/dcmitype/StillImage" />
        <dc:title />
      </cc:Work>
    </rdf:RDF>
  </metadata>
  <g
     inkscape:label="Capa 1"
     inkscape:groupmode="layer"
     id="layer1"
     transform="translate(0,-292.76665)">
    <g
       id="g819">
      <rect
         y="292.89896"
         x="0.13229166"
         height="3.96875"
         width="3.96875"
         id="rect815"
         style="opacity:1;vector-effect:none;fill:#999999;fill-opacity:1;fill-rule:evenodd;stroke:#999999;stroke-width:0.26458332;stroke-linecap:butt;stroke-linejoin:miter;stroke-miterlimit:4;stroke-dasharray:none;stroke-dashoffset:0;stroke-opacity:1" />
      <path
         d="m 3.6724484,294.16862 -0.5844883,-0.58476 c -0.020301,-0.0203 -0.047882,-0.0317 -0.076617,-0.0317 -0.028735,0 -0.056316,0.0114 -0.076628,0.0317 L 1.743963,294.7751 1.2985973,294.32958 c -0.020322,-0.0203 -0.047881,-0.0317 -0.076638,-0.0317 -0.028735,0 -0.056306,0.0114 -0.076617,0.0318 l -0.58446697,0.58478 c -0.0422799,0.0423 -0.0422799,0.11088 1.069e-5,0.15318 l 1.10644948,1.10692 c 0.020312,0.0203 0.047871,0.0317 0.076628,0.0317 0.028746,0 0.056305,-0.0114 0.076617,-0.0317 l 1.8518685,-1.85269 c 0.042291,-0.0423 0.042291,-0.11087 0,-0.15317 z"
         id="path2-6"
         inkscape:connector-curvature="0"
         style="fill:#464646;fill-opacity:1;stroke-width:0.01069023" />
    </g>
  </g>
</svg>
