<?xml version="1.0" encoding="UTF-8" standalone="no"?>
<!-- Generator: Adobe Illustrator 19.0.0, SVG Export Plug-In . SVG Version: 6.00 Build 0)  -->

<svg
   xmlns:dc="http://purl.org/dc/elements/1.1/"
   xmlns:cc="http://creativecommons.org/ns#"
   xmlns:rdf="http://www.w3.org/1999/02/22-rdf-syntax-ns#"
   xmlns:svg="http://www.w3.org/2000/svg"
   xmlns="http://www.w3.org/2000/svg"
   xmlns:sodipodi="http://sodipodi.sourceforge.net/DTD/sodipodi-0.dtd"
   xmlns:inkscape="http://www.inkscape.org/namespaces/inkscape"
   version="1.1"
   id="Capa_1"
   x="0px"
   y="0px"
   viewBox="0 0 24 24"
   xml:space="preserve"
   sodipodi:docname="combo-arrow-down.svg"
   width="24"
   height="24"
   inkscape:version="0.92.4 5da689c313, 2019-01-14"><metadata
     id="metadata39"><rdf:RDF><cc:Work
         rdf:about=""><dc:format>image/svg+xml</dc:format><dc:type
           rdf:resource="http://purl.org/dc/dcmitype/StillImage" /><dc:title /></cc:Work></rdf:RDF></metadata><defs
     id="defs37" /><sodipodi:namedview
     pagecolor="#ffffff"
     bordercolor="#666666"
     borderopacity="1"
     objecttolerance="10"
     gridtolerance="10"
     guidetolerance="10"
     inkscape:pageopacity="0"
     inkscape:pageshadow="2"
     inkscape:window-width="1391"
     inkscape:window-height="891"
     id="namedview35"
     showgrid="false"
     inkscape:pagecheckerboard="true"
     inkscape:zoom="22.476725"
     inkscape:cx="8.8487304"
     inkscape:cy="12.924481"
     inkscape:window-x="370"
     inkscape:window-y="106"
     inkscape:window-maximized="0"
     inkscape:current-layer="Capa_1" /><g
     id="g4"
     transform="translate(0,-17.999001)" /><g
     id="g6"
     transform="translate(0,-17.999001)" /><g
     id="g8"
     transform="translate(0,-17.999001)" /><g
     id="g10"
     transform="translate(0,-17.999001)" /><g
     id="g12"
     transform="translate(0,-17.999001)" /><g
     id="g14"
     transform="translate(0,-17.999001)" /><g
     id="g16"
     transform="translate(0,-17.999001)" /><g
     id="g18"
     transform="translate(0,-17.999001)" /><g
     id="g20"
     transform="translate(0,-17.999001)" /><g
     id="g22"
     transform="translate(0,-17.999001)" /><g
     id="g24"
     transform="translate(0,-17.999001)" /><g
     id="g26"
     transform="translate(0,-17.999001)" /><g
     id="g28"
     transform="translate(0,-17.999001)" /><g
     id="g30"
     transform="translate(0,-17.999001)" /><g
     id="g32"
     transform="translate(0,-17.999001)" /><path
     d="m 12.176469,14.902455 4.285818,-6.5483903 c 0.04522,-0.06933 0.04993,-0.1591928 0.01329,-0.2332578 C 16.438497,8.046519 16.36564,8 16.285925,8 H 7.7142919 C 7.6345729,8 7.561502,8.046512 7.52443,8.1208069 7.50814,8.1537789 7.5,8.1899019 7.5,8.2258018 c 0,0.04493 0.01286,0.08964 0.03793,0.1282579 L 11.823746,14.90245 C 11.863816,14.96364 11.929607,15 12.000108,15 c 0.0705,0 0.136289,-0.03658 0.176361,-0.09755 z"
     id="path2"
     inkscape:connector-curvature="0"
     style="stroke-width:0.21997343;fill:#ffffff;fill-opacity:1" /></svg>