<?xml version="1.0" encoding="UTF-8" standalone="no"?>
<!-- Generator: Adobe Illustrator 19.0.0, SVG Export Plug-In . SVG Version: 6.00 Build 0)  -->

<svg
   xmlns:dc="http://purl.org/dc/elements/1.1/"
   xmlns:cc="http://creativecommons.org/ns#"
   xmlns:rdf="http://www.w3.org/1999/02/22-rdf-syntax-ns#"
   xmlns:svg="http://www.w3.org/2000/svg"
   xmlns="http://www.w3.org/2000/svg"
   xmlns:sodipodi="http://sodipodi.sourceforge.net/DTD/sodipodi-0.dtd"
   xmlns:inkscape="http://www.inkscape.org/namespaces/inkscape"
   version="1.1"
   id="Capa_1"
   x="0px"
   y="0px"
   viewBox="0 0 50 24"
   xml:space="preserve"
   sodipodi:docname="spin-v-up-prelight.svg"
   width="50"
   height="24"
   inkscape:version="0.92.4 5da689c313, 2019-01-14"><metadata
     id="metadata39"><rdf:RDF><cc:Work
         rdf:about=""><dc:format>image/svg+xml</dc:format><dc:type
           rdf:resource="http://purl.org/dc/dcmitype/StillImage" /><dc:title /></cc:Work></rdf:RDF></metadata><defs
     id="defs37" /><sodipodi:namedview
     pagecolor="#ffffff"
     bordercolor="#666666"
     borderopacity="1"
     objecttolerance="10"
     gridtolerance="10"
     guidetolerance="10"
     inkscape:pageopacity="0"
     inkscape:pageshadow="2"
     inkscape:window-width="1910"
     inkscape:window-height="1041"
     id="namedview35"
     showgrid="false"
     inkscape:pagecheckerboard="true"
     inkscape:zoom="11.238363"
     inkscape:cx="-19.833873"
     inkscape:cy="12.924481"
     inkscape:window-x="0"
     inkscape:window-y="0"
     inkscape:window-maximized="1"
     inkscape:current-layer="Capa_1" /><path
     d="m 24.823532,8.0975422 -4.285819,6.5483928 c -0.04522,0.06933 -0.04993,0.159194 -0.01329,0.233258 C 20.561503,14.953483 20.634359,15 20.714075,15 h 8.571636 c 0.07972,0 0.15279,-0.04651 0.189862,-0.120807 0.01629,-0.03297 0.02443,-0.06909 0.02443,-0.104995 0,-0.04493 -0.01286,-0.08964 -0.03793,-0.128257 L 25.176255,8.0975472 c -0.04007,-0.06119 -0.10586,-0.09755 -0.176362,-0.09755 -0.0705,0 -0.136289,0.03658 -0.176361,0.09755 z"
     id="path2"
     inkscape:connector-curvature="0"
     style="fill:#00FF00;fill-opacity:1;stroke-width:0.21997344" /><g
     id="g4"
     transform="translate(13,-17.999001)" /><g
     id="g6"
     transform="translate(13,-17.999001)" /><g
     id="g8"
     transform="translate(13,-17.999001)" /><g
     id="g10"
     transform="translate(13,-17.999001)" /><g
     id="g12"
     transform="translate(13,-17.999001)" /><g
     id="g14"
     transform="translate(13,-17.999001)" /><g
     id="g16"
     transform="translate(13,-17.999001)" /><g
     id="g18"
     transform="translate(13,-17.999001)" /><g
     id="g20"
     transform="translate(13,-17.999001)" /><g
     id="g22"
     transform="translate(13,-17.999001)" /><g
     id="g24"
     transform="translate(13,-17.999001)" /><g
     id="g26"
     transform="translate(13,-17.999001)" /><g
     id="g28"
     transform="translate(13,-17.999001)" /><g
     id="g30"
     transform="translate(13,-17.999001)" /><g
     id="g32"
     transform="translate(13,-17.999001)" /></svg>
